<svg xmlns="http://www.w3.org/2000/svg" width="101" height="64.001" viewBox="0 0 267.8 242.75">
    <g id="Layer_2" data-name="Layer 2">
        <g id="outline">
            <path d="M9.43,96Q0,106.74,0,123.52q0,22.2,14.43,33.29t43.76,11.1a149.33,149.33,0,0,0,19.08-1.18q2.4,16,14.41,24.88,15,11.1,45.52,11.1,7.22,0,14-.56,1.2,19.36,14.88,29.5,15,11.1,45.53,11.1a164.74,164.74,0,0,0,27.1-2.24,173.9,173.9,0,0,0,24.32-5.8c5.14-4.41,6.15-11.49,3-16.05-3.4-5-10.11-4.67-10.46-4.65-5.19,1.31-12.76,3.09-22,4.76-14.66,2.64-21.28,2.82-23.87,2.82q-16.74,0-24.88-5.64t-8.14-17.13c0-.08,0-.16,0-.24a9.52,9.52,0,0,1,0-1.51,1.77,1.77,0,0,0,0-.23,14.32,14.32,0,0,1,.21-1.42,25.7,25.7,0,0,1,1.95-5.45,22.32,22.32,0,0,1,4.84-7.11c.08-.09.14-.19.22-.28s.42-.4.65-.59h0c.06-.05.12-.11.18-.15a6.78,6.78,0,0,1,.78-.54,3.91,3.91,0,0,1,.44-.37l0,0v0c.36-.27.73-.52,1.12-.77l.11-.07a34.5,34.5,0,0,1,5-2.61l29.43-12.88Q239,157,248.25,146.27t9.27-26.56q0-21.39-13.4-33.12T206.19,74.86A94.48,94.48,0,0,0,183.1,77.5q-.65-19.81-13.36-30.95-13.4-11.73-37.92-11.73-16.74,0-29.7,4.64Q100.67,22,89.46,11.75,76.59,0,53,0A79.7,79.7,0,0,0,23.92,4.85a32.69,32.69,0,0,0-13.05,8.66c-3.62,4-4.08,6.89-4.19,7.91-.16,1.39-.42,6.11,3,9.07,3.09,2.65,8,2.89,12.1.46,1.25-.65,7.29-3.8,12.75-6a51.26,51.26,0,0,1,6.63-2.26c.83-.22,1.71-.42,2.65-.6a46.26,46.26,0,0,1,9.07-.88q11.84,0,18.34,5.69t6.49,16.85q0,7.94-4.25,12.93T61,65.57L37,76.84Q18.85,85.35,9.43,96Zm92.95,65.24c0-.22-.08-.45-.1-.68s0-.48,0-.72l.11-.82a19,19,0,0,1,.31-4.66,24.81,24.81,0,0,1,.83-3.35h0c0-.14.1-.27.15-.41a4.94,4.94,0,0,1,.19-.49l.08-.2c.14-.36.3-.72.46-1.06s.43-.86.67-1.25l.15-.21h0l.07-.1c.3-.48.63-1,1-1.42a27.76,27.76,0,0,1,11.55-8.5l29.43-12.88q15.63-6.84,24.68-16.2A76.39,76.39,0,0,1,187,99.75,50,50,0,0,1,206.07,96q12.33,0,19.09,5.69t6.76,16.85q0,7.93-4.43,12.93t-13,8.91l-24.89,11.27q-18.9,8.52-28.71,19.21a35.39,35.39,0,0,0-5.89,8.7,104.11,104.11,0,0,1-19.67,2q-16.75,0-24.89-5.63Q103.19,170.91,102.38,161.28ZM24.61,124a21.28,21.28,0,0,1,3.85-12.88,26.88,26.88,0,0,1,11.1-8.51L67.85,89.71q16.66-7.58,25.58-18.28l.14-.18a82.85,82.85,0,0,1,19.05-11.53A50,50,0,0,1,131.7,56q12.31,0,19.08,5.69t6.76,16.85q0,7.94-4.43,12.94t-13,8.91l-24.88,11.27q-18.91,8.51-28.72,19.2A35.78,35.78,0,0,0,78.82,144a98,98,0,0,1-22.47,2.72q-16.11,0-23.92-5.63T24.61,124Z" style="fill:#ff8562" />
        </g>
    </g>
</svg>